<?xml version="1.0" encoding="utf-8"?>
<!-- Generator: Adobe Illustrator 28.0.0, SVG Export Plug-In . SVG Version: 6.00 Build 0)  -->
<svg version="1.1" id="Layer_1" xmlns="http://www.w3.org/2000/svg" xmlns:xlink="http://www.w3.org/1999/xlink" x="0px" y="0px"
	 viewBox="0 0 1066 632.8" style="enable-background:new 0 0 1066 632.8;" xml:space="preserve">
<style type="text/css">
	.st0{fill:#AFCB24;}
	.st1{fill:#FDFEFC;}
</style>
<path class="st0" d="M0.2,596.2c10.6-22.7,17.4-46.7,25.2-70.3c3.3-10,6.8-9.9,14.9-5.6c25.5,13.4,52.7,20,81.7,18.6
	c4-0.2,8.1-0.3,12.1-1c4.8-0.9,10.3-2.1,10.9-7.9c0.6-6-4.9-8-9.5-9.3c-11.6-3.3-23.4-6.2-35.1-9.1C29,494.1,3.2,428.6,43.5,366.5
	c20.8-32,52.1-47.5,88.5-53.6c44.4-7.5,87.6-0.3,130.5,11.5c7.5,2.1,8.5,5.3,6,12.1c-8,22-15.7,44-23.1,66.2
	c-2.3,6.9-5.2,7.1-11.4,4.6c-25.3-10.4-51.8-15.5-79.2-14.1c-7,0.4-17.6-0.8-18.3,9.5c-0.6,9.2,9.3,9.9,15.9,11.8
	c11.6,3.4,23.5,5.9,35.1,9.1c36.8,9.9,63.7,29.7,68.5,70.4c4.9,41.6-6.7,76.8-42.3,101.5c-30.9,21.4-66.6,26.2-102.9,26.2
	c-38.3,0-75.5-6.8-110.5-23.1L0.2,596.2L0.2,596.2z"/>
<path class="st0" d="M611.9,463.5c6.5-45.9,13.2-91.7,19.2-137.7c1-7.4,2.8-10.5,10.9-10.4c27.5,0.4,55,0.4,82.5,0
	c8-0.1,9.6,2.8,8.6,10c-8.5,59-16.8,118.1-25.1,177.2c-4.7,33.1-9.6,66.2-13.7,99.4c-1.3,10.7-4.6,14.8-16.2,14.4
	c-26.7-1-53.4-0.7-80.1-0.1c-8.3,0.2-12.1-2.7-15.3-10.1c-19.1-44-38.6-87.8-58-131.7c-1.1-2.5-2.3-5-4.8-10.6
	c-4.5,31.2-8.5,58.9-12.4,86.7c-2.6,18.8-5.4,37.5-7.7,56.3c-0.9,6.8-3.5,9.5-10.8,9.3c-27.5-0.5-55-0.4-82.5,0
	c-7.4,0.1-9.7-1.4-8.5-9.4c8.1-55.4,15.6-111,23.4-166.4c5.2-37.1,11-74.2,15.5-111.4c1.3-11,5.1-13.9,15.8-13.6
	c28.3,0.7,56.6,0.7,84.9,0c9.3-0.2,13.2,3.2,16.6,11.5c18.2,45.6,37.1,91,55.7,136.4L611.9,463.5L611.9,463.5z"/>
<path class="st0" d="M849,151.2c6.4-46.4,13-91.9,18.9-137.4c1.1-8.6,4.2-11.2,12.9-11c26.3,0.6,52.6,0.5,78.9,0.1
	c8.6-0.1,11.7,0.7,10.1,11.1c-13,89.4-25.3,178.8-37.6,268.3c-1.2,9-3.3,14.1-14.6,13.6c-26.3-1.3-51.5,9.3-78.1,8
	c-11.1-0.5-16.9-3.2-21.4-13.8c-18.1-42.7-37.2-84.9-55.9-127.4c-1.1-2.4-2.6-4.7-5.5-9.8c-4,27.9-7.6,52.8-11.2,77.7
	c-3.1,21.5-6.6,43-9.1,64.7c-0.8,7-3.7,8.4-10,8.4c-27.9-0.3-55.8-0.2-83.7,0c-6.5,0-9.2-1-8-8.7c13.6-93.8,27-187.6,39.8-281.4
	c1.3-9.5,4.9-10.7,13-10.6c28.7,0.4,57.5,0.6,86.2-0.1c9.6-0.2,14.2,2.7,17.7,11.6C808,56.7,825.4,98.8,842.7,141
	C844.1,144.2,844.6,148,849,151.2L849,151.2z"/>
<path class="st0" d="M1002.6,586.4c-34.8,30.6-75.6,44.5-121.6,40.8c-58.3-4.7-107.6-26.9-137.1-80.1C716,497.1,726,426,766,378.1
	c37.4-44.8,86.7-65.9,143.9-70.2c36.3-2.7,71.7,2.5,106,14.9c7.7,2.8,11.1,5.5,7.5,14.6c-8.2,21-15.4,42.4-22.3,63.9
	c-2.6,8-5,8.6-12.4,4.8c-36.4-18.4-73.5-20.8-110.4-1.5c-27.6,14.5-43.2,44-40.2,74.4c3.4,33.7,22.8,58.7,52.4,67.2
	c23.9,6.9,53.8-1.6,67.2-19.6c-11.5-0.9-22.6-2.3-33.7-2.5c-7.6-0.1-8.7-2.9-7.1-9.6c1.7-7,2.2-14.3,3-21.5
	c2.4-21.4-0.2-18.8,21.8-17.1c36.3,2.7,72.5,6,108.7,8.8c6.7,0.5,11.4,0.7,10.7,9.9c-3.1,41-5.6,82.1-8.1,123.1
	c-0.4,6.3-2.8,8.4-9,7.8c-12.5-1.1-25-1.8-37.5-2.3c-5.4-0.2-6.8-2.4-6.3-7.5c1-9.6,3.8-19,2.9-28.8c0.4-0.5,0.8-0.9,1.2-1.3
	c0-0.1-0.4-0.5-0.6-0.8C1003.3,585.4,1002.9,585.9,1002.6,586.4L1002.6,586.4z"/>
<path class="st0" d="M497.2,303.4c-36,0-72-0.1-108,0.1c-7.5,0-10.2-0.8-8.9-9.9C394,199.5,407.1,105.3,420,11
	c0.9-6.2,3.3-8.1,9.3-8.1c72.8,0.1,145.6,0.2,218.4,0c6.9,0,9.4,1.9,8.3,9.1c-3.5,23.1-6.9,46.2-9.7,69.4c-0.9,7.6-5.8,6.4-10.4,6.4
	c-35.6,0-71.2,0-106.8,0c-10.8,0-19.1,13.4-14.3,23.2c2.2,4.5,6.4,2.6,9.7,2.6c29.5,0.2,59.1,0.6,88.6-0.2
	c11-0.3,12.8,3.4,11.2,13.1c-3.1,18.3-5.5,36.7-7.8,55.1c-0.9,7.8-3.8,10.8-12.2,10.6c-29.9-0.5-59.9-0.2-89.8-0.2
	c-10.8,0-19.8,15.3-14.2,24.4c2.3,3.8,6.6,2.1,10,2.2c35.2,0.1,70.4,0.4,105.6-0.1c9.6-0.1,11.7,2.6,10.1,11.7
	c-3.6,20.6-6.5,41.4-8.9,62.2c-1,8.6-4.1,11.4-12.9,11.2C568.5,303.1,532.9,303.4,497.2,303.4L497.2,303.4z"/>
<path class="st0" d="M267.8,3c41.7,0,83.3,0.3,125-0.2c10-0.1,11.5,3.4,10.2,12c-3.4,21.9-6.7,43.8-9.3,65.9c-0.9,7.6-4.2,9.1-11,9
	c-20.6-0.3-41.3,0.1-61.9-0.2c-6.7-0.1-9.7,1.2-10.7,8.8c-8.3,61.5-17.4,122.9-25.9,184.4c-2.9,20.7-2.5,20.1-23.5,20.9
	c-27.6,1.1-54.8-3.2-82.2-5.1c-8.1-0.6-6.7-5.1-6-9.8c4.5-32.3,9-64.7,13.6-97c4.3-30.7,8.5-61.5,13.2-92.2
	c1.3-8.3-1.6-10.3-9.5-10.2c-20.6,0.4-41.3-0.1-61.9,0.3c-7.1,0.1-8.8-1.8-7.7-9c3.6-21.9,6.3-43.9,9.1-65.9c1-8.2,3.6-12.2,13.4-12
	C184.4,3.4,226.1,3,267.8,3L267.8,3z"/>
<path class="st0" d="M355,315.6c15.8,0,31.5,0.1,47.3-0.1c5.5-0.1,7.7,0.9,6.7,7.5c-9.9,68.2-19.3,136.4-28.9,204.7
	c-3.7,26.3-7.6,52.6-10.9,79c-0.9,7.1-3.3,9.5-10.5,9.4c-30.7-0.3-61.5-0.4-92.2,0c-7.7,0.1-9.8-2.2-8.7-9.7
	c10.1-70.2,20-140.4,30-210.6c3.3-23.5,6.9-47,9.8-70.6c0.9-7.4,3.5-10.2,11.3-9.9C324.2,316,339.6,315.6,355,315.6L355,315.6z"/>
<path class="st1" d="M1002.6,586.4c0.4-0.5,0.8-1,1.1-1.5c0.2,0.3,0.7,0.7,0.6,0.8c-0.3,0.5-0.8,0.9-1.2,1.3L1002.6,586.4
	L1002.6,586.4z"/>
</svg>
